<?xml version="1.0" encoding="UTF-8"?>
<svg id="Layer_1" data-name="Layer 1" xmlns="http://www.w3.org/2000/svg" viewBox="0 0 1189.94 448.24">
  <defs>
    <style>
      .cls-1 {
        stroke: #fff;
        stroke-miterlimit: 10;
      }

      .cls-1, .cls-2 {
        fill: #122f39;
      }

      .cls-3 {
        fill: #272727;
      }
    </style>
  </defs>
  <path class="cls-2" d="M359.99,137.68l-56.1-5.87c-.51-.05-1.01.11-1.39.45-.38.34-.59.82-.59,1.33v103.74c0,5.99-2.56,11.71-7.01,15.71-4.46,4-10.42,5.92-16.37,5.27l-110.12-11.96s-.01,0-.02,0c-.04,0-.07,0-.11,0-.1,0-.2,0-.3.01-.05,0-.1.02-.14.03-.09.02-.17.04-.26.08-.02,0-.05.01-.07.02l-30.8,13.32c-.66.28-1.08.93-1.08,1.64v49.15c0,4.94,1.24,9.83,3.59,14.14,0,0,0,0,0,0,4.79,8.8,13.62,14.55,23.6,15.37,0,0,61.98,5.83,90.15,7.41l58.93,4.84c1.11.09,2.22.14,3.33.14,4.08,0,8.11-.62,12.03-1.85l39.16-12.28c.12-.04.23-.09.34-.15,3.43-1.26,6.62-3.19,9.35-5.71,5.71-5.29,8.99-12.79,8.99-20.58v-146.39c0-14.4-10.8-26.38-25.11-27.88ZM381.52,311.95c0,6.89-2.79,13.26-7.84,17.95-2.45,2.26-5.25,3.96-8.27,5.06-.01,0-.03,0-.04,0l-2.37.72c-1.48.37-2.99.59-4.52.68-.16,0-.33.02-.49.02-.18,0-.37,0-.55.01-.23,0-.46,0-.69,0-.14,0-.28,0-.43,0-.38-.01-.76-.03-1.15-.06l-161.15-12.49c-.49-.04-.97-.09-1.45-.16-.17-.02-.34-.05-.51-.08-.3-.05-.6-.1-.89-.15-.22-.04-.43-.08-.65-.13-.22-.05-.43-.1-.64-.15-9.03-2.22-16.2-9.16-18.81-17.95,0-.01,0-.02-.01-.04-.11-.37-.21-.75-.3-1.12-.03-.11-.05-.22-.07-.33-.11-.46-.2-.93-.28-1.4-.05-.31-.11-.62-.15-.93-.03-.18-.05-.37-.07-.55-.04-.34-.07-.68-.1-1.02-.01-.16-.03-.31-.03-.47-.03-.5-.05-.99-.05-1.49v-47.76l108.14,11.74c6.96.76,13.94-1.49,19.15-6.17,5.21-4.68,8.2-11.37,8.2-18.38v-101.75l54.12,5.67c12.49,1.31,21.91,11.76,21.91,24.32v146.39Z"/>
  <path class="cls-1" d="M127.26,211.78s.07.01.1.02c.06.01.12.02.18.03.02,0,.03,0,.05,0l106.7,11.37c.43.04.86.05,1.29.05,2.15,0,4.3-.45,6.25-1.3l24.67-10.59c.06-.02.12-.05.18-.07.02-.01.05-.02.07-.03.04-.02.08-.03.12-.05l.07-.03c.06-.03.12-.06.18-.09l.06-.04c.13-.07.25-.14.38-.21,0,0,0,0,0,0,1.95-1.19,4.27-3.68,4.28-8.83,0-7.53,0-91.64,0-91.68-.04-1.94-1.31-5.73-5.78-6.22l-91.4-14.18c-.05,0-.1-.01-.15-.02-.45-.03-.89-.04-1.33-.04-.11,0-.23,0-.34,0-.43,0-.86.02-1.28.05-.01,0-.03,0-.04,0-.44.03-.87.09-1.3.15-.11.02-.22.03-.34.05-.41.07-.83.14-1.24.24-.01,0-.03,0-.04,0-16.6,3.06-27.54,10.73-33.88,16.75-5.58,5.3-8.78,12.81-8.78,20.6v82.34s.01.03.01.05c0,.07,0,.14.02.21,0,.04.02.08.03.12,0,.03.02.07.02.1.04.13.08.25.14.36,0,0,0,0,0,.01.06.11.14.21.22.3.02.02.04.05.07.07.09.09.19.18.3.25,0,0,0,0,0,0,.08.05.16.09.24.13.03.01.05.02.08.03.06.02.12.05.18.06ZM265.56,107.65s.06,0,.09.01c2.32.24,2.58,2.17,2.61,2.7,0,0,0,81.52,0,89.05,0,2.79-.86,4.73-2.55,5.77l-.03.02c-.14.09-.29.16-.45.22l-.04.02c-.16.06-.33.11-.5.14-.04,0-.09.01-.13.02-.14.02-.28.04-.42.05-.05,0-.1,0-.15,0-.19,0-.37,0-.57-.02l-106.67-11.56-.04-84.84s0-.02,0-.04c0-.06,0-.2.02-.4.03-.54.09-1.08.18-1.61.47-2.92,1.72-5.63,3.63-7.89.52-.61,1.09-1.2,1.71-1.74.24-.21.48-.41.73-.6.08-.06.15-.12.23-.17.18-.13.35-.26.53-.39.09-.06.17-.12.26-.18.18-.12.37-.24.56-.36.08-.05.15-.1.23-.14.53-.32,1.08-.6,1.65-.85.08-.04.16-.07.24-.1.21-.09.41-.17.62-.25.09-.03.18-.07.28-.1.21-.08.43-.15.65-.22.08-.02.16-.05.24-.07.3-.09.6-.17.9-.24.63-.11,1.26-.22,1.9-.32h0s.07,0,.11-.01c.44-.05.87-.08,1.32-.09.06,0,.11,0,.17,0,.45,0,.9,0,1.35.03l91.34,14.17Z"/>
  <g>
    <g>
      <polygon class="cls-2" points="452.74 316.98 477.84 316.98 477.84 310.19 452.74 310.19 452.74 298.64 479.16 298.64 479.16 292.07 445.35 292.07 445.35 336.04 479.82 336.04 479.82 329.36 452.74 329.36 452.74 316.98"/>
      <path class="cls-2" d="M523.49,324.05c-7.55-9.03-15.69-18.38-22.89-26.67l-4.62-5.31h-7.47v43.97h7.39v-31.44c5.87,6.9,11.79,13.63,17.54,20.14,3.27,3.71,6.52,7.4,9.75,11.11l.17.19h7.47v-43.97h-7.34v31.99Z"/>
      <path class="cls-2" d="M566.76,319.45h16.43c-1.24,6.51-7.87,10.84-16.74,10.84-9.61,0-19.31-4.95-19.31-16.02,0-7.9,5.84-16.4,18.65-16.4,7.45,0,13.69,3.48,16.68,9.3l.23.45,6.73-2.59-.22-.54c-3.31-8.09-12.53-13.31-23.48-13.31-15.25,0-26.32,9.66-26.32,22.97s10.93,22.81,25.99,22.81c8.59,0,15.12-2.88,18.97-8.36l.25,7.42h6.06v-22.66h-23.92v6.08Z"/>
      <rect class="cls-2" x="600.37" y="292.07" width="7.39" height="43.97"/>
      <path class="cls-2" d="M654.57,324.05c-7.55-9.03-15.68-18.38-22.89-26.66l-4.62-5.32h-7.47v43.97h7.39v-31.44c5.87,6.9,11.8,13.63,17.54,20.15,3.26,3.7,6.51,7.39,9.74,11.1l.17.19h7.47v-43.97h-7.34v31.99Z"/>
      <polygon class="cls-2" points="681.13 316.98 706.23 316.98 706.23 310.19 681.13 310.19 681.13 298.64 707.54 298.64 707.54 292.07 673.74 292.07 673.74 336.04 708.2 336.04 708.2 329.36 681.13 329.36 681.13 316.98"/>
      <polygon class="cls-2" points="724.29 316.98 749.39 316.98 749.39 310.19 724.29 310.19 724.29 298.64 750.71 298.64 750.71 292.07 716.9 292.07 716.9 336.04 751.36 336.04 751.36 329.36 724.29 329.36 724.29 316.98"/>
      <path class="cls-2" d="M788.55,324.04c-1.31-1.61-2.63-3.23-3.94-4.84,7.63-1.28,12.33-6.32,12.33-13.33,0-10.18-9.17-13.8-17.76-13.8h-19.13v43.97h7.39v-16.26h9.1l13.23,16.26h8.48l-.74-.92c-2.96-3.69-5.97-7.39-8.98-11.08ZM767.45,298.58h10.64c5.38,0,11.13,1.96,11.13,7.45,0,6.68-7.59,7.4-10.86,7.4h-10.91v-14.85Z"/>
      <rect class="cls-2" x="805.91" y="292.07" width="7.39" height="43.97"/>
      <path class="cls-2" d="M860.11,324.05c-7.55-9.03-15.69-18.39-22.89-26.67l-4.62-5.31h-7.47v43.97h7.39v-31.44c5.87,6.9,11.8,13.63,17.54,20.14,3.27,3.71,6.52,7.4,9.75,11.11l.17.19h7.47v-43.97h-7.34v31.99Z"/>
      <path class="cls-2" d="M903.38,319.45h16.43c-1.24,6.51-7.87,10.84-16.74,10.84-9.61,0-19.31-4.95-19.31-16.02,0-7.9,5.84-16.4,18.65-16.4,7.45,0,13.69,3.48,16.68,9.3l.23.45,6.73-2.59-.22-.54c-3.31-8.09-12.53-13.31-23.48-13.31-15.25,0-26.32,9.66-26.32,22.97s10.93,22.81,25.99,22.81c8.59,0,15.12-2.88,18.97-8.36l.25,7.42h6.06v-22.66h-23.92v6.08Z"/>
      <polygon class="cls-2" points="961.24 292.07 953.85 292.07 953.85 336.04 986.39 336.04 986.39 329.36 961.24 329.36 961.24 292.07"/>
      <polygon class="cls-2" points="987.13 298.64 1004.04 298.64 1004.04 336.04 1011.43 336.04 1011.43 298.64 1028.35 298.64 1028.35 292.07 987.13 292.07 987.13 298.64"/>
      <path class="cls-2" d="M1053.81,292.07h-19.18v43.97h19.79c14.79,0,24.35-8.74,24.35-22.26s-9.33-21.71-24.95-21.71ZM1042.02,298.64h10.31c8.53,0,18.71,2.69,18.71,15.52,0,9.73-6.12,15.3-16.79,15.3h-12.23v-30.83Z"/>
      <path class="cls-2" d="M1089.56,327.43c-2.7,0-4.91,1.98-4.91,4.41,0,2.57,2.15,4.58,4.91,4.58s4.8-2.01,4.8-4.58c0-2.43-2.15-4.41-4.8-4.41Z"/>
    </g>
    <g>
      <path class="cls-2" d="M543.43,178.17c0-34.07-35.6-36.72-46.52-36.72h-50.99v112.34h25.03v-39.04h16.39l31.9,39.04h28.63l-33.89-41.3c12.02-2.94,29.45-11.19,29.45-34.32ZM470.95,163.55h22.32c5.66,0,24.14,1.09,24.14,15.05,0,11.97-13.13,14.49-24.14,14.49h-22.32v-29.54Z"/>
      <path class="cls-2" d="M611.88,141.45l-52,112.34h26.03l13.99-28.54h50.61l13.99,28.54h26.59l-52-112.34h-27.23ZM639.46,201.9h-28.47c4.74-9.76,9.82-20.56,14.28-30.35,4.68,10.48,9.69,21,14.19,30.35Z"/>
      <path class="cls-2" d="M794.4,141.45h-27.03l-.48.7c-12.08,17.69-18.57,27.58-24.84,37.15-2.53,3.86-5.07,7.74-7.98,12.14l-33.28-49.99h-27.14l1.73,2.51c2.09,3.03,9.77,14.91,18.65,28.66,9.49,14.69,20.24,31.31,27.66,42.55v38.62h24.75v-38.76c9.57-14.53,19.19-29.34,28.49-43.67,5.94-9.15,11.88-18.3,17.84-27.43l1.62-2.48Z"/>
      <path class="cls-2" d="M856.26,141.45h-27.23l-52,112.34h26.03l13.99-28.54h50.61l13.99,28.54h26.59l-52-112.34ZM856.6,201.9h-28.47c4.74-9.76,9.82-20.56,14.28-30.35,4.68,10.48,9.69,21,14.19,30.35Z"/>
    </g>
  </g>
  <path class="cls-3" d="M151.8,175.82c1.93,0,1.93-3,0-3s-1.93,3,0,3h0Z"/>
  <path class="cls-2" d="M537.85,181.95c1.93,0,1.93-3,0-3s-1.93,3,0,3h0Z"/>
  <path class="cls-2" d="M157.93,296.33c1.93,0,1.93-3,0-3s-1.93,3,0,3h0Z"/>
</svg>