<?xml version="1.0" encoding="UTF-8"?>
<svg id="Layer_1" data-name="Layer 1" xmlns="http://www.w3.org/2000/svg" viewBox="0 0 871.21 873.64">
  <!-- Expanded the viewBox width to 350 and height to 280 to give the bottom-right shadow plenty of breathing room -->
  <svg x="0" y="0" width="100%" height="100%" viewBox="240 130 350 280" preserveAspectRatio="xMidYMid meet">
    <g>
      <path fill="#ffffff" d="M547.43,198.64l-56.1-5.87c-.51-.05-1.01.11-1.39.45-.38.34-.59.82-.59,1.33v103.74c0,5.99-2.56,11.71-7.01,15.71-4.46,4-10.42,5.92-16.37,5.27l-110.12-11.96s-.01,0-.02,0c-.04,0-.08,0-.11,0-.1,0-.2,0-.3.01-.05,0-.1.02-.14.03-.09.02-.17.04-.26.08-.02,0-.05.01-.07.02l-30.8,13.32c-.66.28-1.08.93-1.08,1.64v49.15c0,4.94,1.24,9.83,3.59,14.14,0,0,0,0,0,0,4.79,8.8,13.62,14.55,23.6,15.37,0,0,61.98,5.83,90.15,7.41l58.93,4.84c1.11.09,2.22.14,3.33.14,4.08,0,8.11-.62,12.03-1.85l39.16-12.28c.12-.04.23-.09.34-.15,3.43-1.26,6.62-3.19,9.35-5.71,5.71-5.29,8.99-12.79,8.99-20.58v-146.39c0-14.4-10.8-26.38-25.11-27.88ZM568.96,372.91c0,6.89-2.79,13.26-7.84,17.95-2.45,2.26-5.25,3.96-8.27,5.06-.01,0-.03,0-.04,0l-2.37.72c-1.48.37-2.99.59-4.52.68-.16,0-.33.02-.49.02-.18,0-.36,0-.55.01-.23,0-.46,0-.69,0-.14,0-.28,0-.43,0-.38-.01-.76-.03-1.15-.06l-161.15-12.49c-.49-.04-.97-.09-1.45-.16-.17-.02-.34-.05-.51-.08-.3-.05-.6-.1-.89-.15-.22-.04-.43-.08-.65-.13-.22-.05-.43-.1-.64-.15-9.03-2.22-16.2-9.16-18.81-17.95,0-.01,0-.02-.01-.04-.11-.37-.21-.75-.3-1.12-.03-.11-.05-.22-.07-.33-.11-.46-.2-.93-.28-1.4-.05-.31-.11-.62-.15-.93-.03-.18-.05-.37-.07-.55-.04-.34-.07-.68-.1-1.02-.01-.16-.03-.31-.03-.47-.03-.5-.05-.99-.05-1.49v-47.76l108.14,11.74c6.96.76,13.94-1.49,19.15-6.17,5.21-4.68,8.2-11.37,8.2-18.38v-101.75l54.12,5.67c12.49,1.31,21.91,11.76,21.91,24.32v146.39Z"/>
      <path fill="#ffffff" d="M314.71,272.73s.07.01.1.02c.06.01.12.02.18.03.02,0,.03,0,.05,0l106.7,11.37c.43.04.86.05,1.29.05,2.15,0,4.3-.45,6.25-1.3l24.67-10.59c.06-.02.12-.05.18-.07.02-.01.05-.02.07-.03.04-.02.08-.03.12-.05l.07-.03c.06-.03.12-.06.18-.09l.06-.04c.13-.07.25-.14.38-.21,0,0,0,0,0,0,1.95-1.19,4.27-3.68,4.28-8.83,0-7.53,0-91.64,0-91.68-.04-1.94-1.31-5.73-5.78-6.22l-91.4-14.18c-.05,0-.1-.01-.15-.02-.45-.03-.89-.04-1.33-.04-.11,0-.23,0-.34,0-.43,0-.86.02-1.28.05-.01,0-.03,0-.04,0-.44.03-.87.09-1.3.15-.11.02-.22.03-.34.05-.41.07-.83.14-1.24.24-.01,0-.03,0-.04,0-16.6,3.06-27.54,10.73-33.88,16.75-5.58,5.3-8.78,12.81-8.78,20.6v82.34s.01.03.01.05c0,.07,0,.14.02.21,0,.04.02.08.03.12,0,.03.02.07.03.1.04.13.08.25.14.36,0,0,0,0,0,.01.06.11.14.21.22.3.02.02.04.05.07.07.09.09.19.18.3.25,0,0,0,0,0,0,.08.05.16.09.24.13.03.01.05.02.08.03.06.02.12.05.18.06ZM453.01,168.61s.06,0,.09.01c2.32.24,2.58,2.17,2.61,2.7,0,0,0,81.52,0,89.05,0,2.79-.86,4.73-2.55,5.77l-.03.02c-.14.09-.29.16-.45.22l-.04.02c-.16.06-.33.11-.5.14-.04,0-.09.01-.13.02-.14.02-.28.04-.42.05-.05,0-.1,0-.15,0-.19,0-.37,0-.57-.02l-106.67-11.56-.04-84.84s0-.02,0-.04c0-.06,0-.2.02-.4.03-.54.09-1.08.18-1.61.47-2.92,1.72-5.63,3.63-7.89.52-.61,1.09-1.2,1.71-1.74.24-.21.48-.41.73-.6.08-.06.15-.12.23-.17.18-.13.35-.26.53-.39.09-.06.17-.12.26-.18.18-.12.37-.24.56-.36.08-.05.15-.1.23-.14.53-.32,1.08-.6,1.65-.85.08-.04.16-.07.24-.1.21-.09.41-.17.62-.25.09-.03.18-.07.28-.1.21-.08.43-.15.65-.22.08-.02.16-.05.24-.07.3-.09.6-.17.9-.24.63-.11,1.26-.22,1.9-.32h0s.07,0,.11-.01c.44-.05.87-.08,1.32-.09.06,0,.11,0,.17,0,.45,0,.9,0,1.35.03l91.34,14.17Z"/>
    </g>
  </svg>
</svg>
